<?xml version="1.0" encoding="UTF-8"?>
<svg xmlns="http://www.w3.org/2000/svg" xmlns:xlink="http://www.w3.org/1999/xlink" width="160pt" height="160pt" viewBox="0 0 160 160" version="1.1">
<g id="surface1">
<path style=" stroke:rgb(255, 251, 45);fill-rule:nonzero;fill:none;fill-opacity:1;" d="M 0 80 L 0 160 L 160 160 L 160 0 L 0 0 Z M 46.382812 15.601562 C 46.707031 16.441406 47 18.101562 47 19.101562 C 47 21.5 54.292969 36.523438 54.769531 35.101562 C 54.949219 34.554688 53.691406 30.601562 52 26.398438 C 50.308594 22.199219 49.039062 18.289062 49.203125 17.800781 C 49.949219 15.597656 57.257812 31.800781 58.046875 37.398438 C 59.300781 46.300781 59.300781 46.300781 79.699219 46.726562 L 97.5 47.101562 L 103.5 39.800781 C 109.171875 32.898438 109.527344 32.144531 110.015625 26 C 110.710938 17.199219 112.792969 16.878906 119.734375 24.5 C 125.199219 30.5 126.054688 31.042969 125.257812 28 C 124.476562 25 126.316406 25.601562 128.324219 29 C 129.332031 30.699219 131.183594 32.71875 132.601562 33.660156 C 135.699219 35.714844 138.496094 40.90625 137.199219 42.199219 C 136.574219 42.828125 135.734375 41.949219 134.949219 39.851562 C 133.792969 36.75 133.664062 36.675781 133.25 38.851562 C 133 40.148438 133.289062 41.691406 133.898438 42.300781 C 134.507812 42.910156 135 44.449219 135 45.75 C 135 47.0625 136.164062 50.398438 137.636719 53.300781 C 141.59375 61.101562 140.71875 69 135.898438 69 C 133.898438 69 133.21875 65.601562 135 64.507812 C 136.695312 63.464844 135.984375 58.699219 133.4375 54 L 131 49.5 L 131.648438 57.25 C 132.121094 62.851562 131.96875 65 131.101562 65 C 129.894531 65 129.550781 64.300781 128.632812 60 C 128.335938 58.601562 127.441406 56.621094 126.601562 55.5 C 125.101562 53.5 125.101562 53.5 123.527344 55.699219 C 120.980469 59.269531 114.394531 58.300781 116.722656 54.699219 C 117.152344 54.035156 117.5 50.75 117.5 47.351562 C 117.5 43.949219 117.8125 40.886719 118.199219 40.5 C 118.585938 40.113281 120.042969 41.101562 121.453125 42.699219 C 124.019531 45.617188 124.882812 44.5 122.914062 40.800781 C 121.960938 39 122.027344 38.789062 123.398438 39.328125 C 125.839844 40.289062 125.292969 38.398438 122.203125 35.199219 C 120.753906 33.699219 118.769531 31.285156 117.921875 30 C 115.980469 27.042969 114.472656 27.898438 113.699219 32.398438 C 113.375 34.300781 112.164062 37.292969 111.050781 38.949219 C 109.90625 40.648438 108.136719 43.261719 107.050781 44.851562 C 105.683594 46.851562 105.429688 48.027344 106.199219 48.800781 C 107.722656 50.324219 106.300781 53.339844 104.398438 52.613281 C 103.398438 52.230469 102.96875 52.46875 103.25 53.25 C 103.488281 53.90625 104.601562 54.660156 105.601562 54.839844 C 108.199219 55.300781 122.105469 65.964844 121.460938 67 C 121.164062 67.476562 120.101562 67.640625 119.199219 67.351562 C 118.113281 66.996094 118.398438 67.554688 120 68.898438 C 121.398438 70.078125 123.335938 71.277344 124.398438 71.625 C 127.699219 72.714844 133.007812 78.242188 133.882812 81.5 C 134.710938 84.601562 133.765625 87.828125 131.601562 89.277344 C 128.300781 91.484375 117.714844 89.199219 115.953125 85.898438 C 114.691406 83.53125 111.699219 83.449219 103.300781 85.550781 C 96.300781 87.300781 92.222656 86.839844 91.296875 84.199219 C 90.964844 83.253906 89.589844 81.300781 88.199219 79.800781 C 86.164062 77.601562 85.914062 76.839844 86.863281 75.699219 C 88.253906 74.03125 102.101562 67 104 67 C 104.984375 67 104.898438 66.550781 103.648438 65.148438 C 102.757812 64.148438 102.277344 62.542969 102.601562 61.648438 C 103.042969 60.433594 102.699219 60 101.300781 60 C 98.398438 60 95.683594 56.511719 96.394531 53.699219 C 96.984375 51.359375 96.800781 51.285156 88.800781 50.664062 C 78.601562 49.871094 63.675781 49.804688 61.699219 50.539062 C 60.777344 50.886719 60.390625 51.851562 60.699219 53.050781 C 61.066406 54.476562 60.648438 55 59.148438 55 C 58.050781 55 56.820312 55.464844 56.5 56 C 56.175781 56.542969 54.300781 57 52.398438 57 C 48.898438 57 47.757812 58.582031 50.5 59.628906 C 51.300781 59.933594 52.023438 60.738281 52.050781 61.351562 C 52.078125 61.976562 55.699219 64.265625 60 66.375 C 70 71.28125 72.769531 74.042969 71.160156 77.5 C 70.511719 78.898438 69.539062 80 68.949219 80 C 68.386719 80 66.777344 81.199219 65.46875 82.601562 C 62.332031 85.957031 58.101562 85.988281 53.101562 82.703125 C 49.5 80.335938 35.929688 75.738281 35.089844 76.601562 C 34.886719 76.808594 35.527344 77.898438 36.449219 78.898438 C 38.109375 80.699219 38.101562 80.851562 36.351562 81.800781 C 35.308594 82.363281 33.101562 83.097656 31.300781 83.480469 C 27.800781 84.222656 25.503906 86.378906 26.488281 88 C 26.839844 88.570312 27.699219 89 28.5 89 C 30.398438 89 31.691406 93.710938 30.199219 95.199219 C 28.214844 97.183594 28.898438 98.101562 32 97.617188 C 35.601562 97.050781 39.101562 99.253906 37.378906 101 C 36.519531 101.878906 36.851562 102.898438 38.617188 104.800781 C 41.378906 107.773438 41.148438 111.101562 37.933594 114.601562 C 36.886719 115.742188 36.183594 117.800781 36.300781 119.398438 C 36.421875 121.101562 35.832031 122.652344 34.800781 123.351562 C 33.398438 124.296875 32.5 123.921875 29.699219 121.222656 C 25.601562 117.269531 24.867188 117.226562 25.636719 121 C 26.8125 126.769531 22.730469 123.601562 17.136719 114.398438 C 13.730469 108.800781 13.410156 106.417969 15.316406 100.898438 C 16.941406 96.199219 18.785156 94 21.101562 94 C 22.335938 94 23 93.300781 23 92 C 23 90.699219 22.300781 90 21 90 C 18.800781 90 18.234375 88.441406 20.199219 87.792969 C 20.964844 87.542969 20.601562 86.601562 19.199219 85.199219 C 18.007812 84.007812 17 81.898438 17 80.601562 C 17 76.988281 21 71.921875 26 69.203125 C 31.699219 66.101562 31.699219 66.101562 30 64.984375 C 28.753906 64.167969 28.949219 63.617188 31.148438 61.75 C 32.648438 60.476562 34.054688 58.632812 34.390625 57.5 C 34.929688 55.660156 44.300781 50 46.800781 50 C 48.414062 50 49.183594 45.300781 48.40625 40.199219 C 47.8125 36.300781 43.324219 26.300781 41 23.699219 C 40.320312 22.9375 27.460938 35.5 25.648438 38.699219 C 25.140625 39.601562 25.179688 40.578125 25.75 41.148438 C 26.355469 41.757812 27.839844 40.398438 29.851562 37.398438 C 32.796875 33 33.050781 32.84375 33.800781 34.949219 C 34.578125 37.136719 34.667969 37.101562 37.050781 33.601562 C 38.410156 31.601562 39.746094 30 40.050781 30 C 40.347656 30 41.101562 31.351562 41.699219 32.949219 C 42.667969 35.550781 42.515625 36.164062 40.398438 38.132812 C 37.601562 40.734375 37.464844 41.5625 39.5 43.601562 C 41.300781 45.398438 41.445312 48.347656 39.800781 49.667969 C 37.199219 51.753906 34.253906 52.054688 32.601562 50.398438 C 30.523438 48.320312 29.378906 49.199219 28.566406 53.5 C 27.808594 57.5 26.824219 57.824219 24 55 C 21.800781 52.800781 21.488281 51.378906 23 50.453125 C 24.199219 49.714844 24.269531 48 23.101562 48 C 22.605469 48 21.636719 49.398438 20.949219 51.101562 C 19.878906 53.757812 19.949219 54.898438 21.449219 59.101562 C 23.09375 63.699219 23.101562 64.152344 21.574219 66.5 C 19.53125 69.636719 18.738281 69.199219 17.019531 64 C 16.292969 61.800781 15.339844 60 14.898438 60 C 14.464844 60 13.828125 58.5 13.5 56.699219 C 13.027344 54.105469 13.78125 51.5 17.03125 44.5 C 25.054688 27.199219 23.570312 29.097656 37 19.023438 C 44.101562 13.699219 45.457031 13.203125 46.382812 15.601562 Z M 48.796875 89.800781 C 49.527344 90.753906 49.96875 92.601562 49.800781 94 C 49.554688 96.046875 48.898438 96.558594 46.199219 96.816406 C 42.199219 97.195312 39 94.789062 39 91.398438 C 39 87 45.804688 85.890625 48.796875 89.800781 Z M 112 92 C 115.726562 95.726562 113.5 101 108.199219 101 C 102.398438 101 99.726562 94.660156 104.199219 91.519531 C 107.199219 89.414062 109.558594 89.558594 112 92 Z M 125.542969 95 C 123.074219 97.65625 124.398438 98.914062 130.601562 99.800781 C 135.101562 100.441406 135.523438 100.746094 135.789062 103.5 C 136.371094 109.5 134.601562 114.308594 130.898438 116.800781 C 127.800781 118.882812 125.066406 122.328125 127.898438 120.578125 C 128.480469 120.21875 129.304688 120.699219 129.648438 121.601562 C 130.113281 122.816406 128.898438 124.527344 125.398438 127.601562 C 122.699219 129.96875 120.007812 131.921875 119.398438 131.945312 C 117.652344 132.015625 114.804688 127.101562 115.433594 125.101562 C 115.738281 124.132812 115.378906 121.5 114.648438 119.398438 C 113.921875 117.289062 112.957031 113.550781 112.550781 111.25 L 111.800781 107 L 116.898438 104.882812 C 122.601562 102.515625 123.046875 101.652344 119.898438 99.101562 L 117.800781 97.398438 L 121.5 94.101562 C 124.101562 91.78125 125.527344 91.128906 126.300781 91.898438 C 127.070312 92.667969 126.84375 93.601562 125.542969 95 Z M 94.800781 106.199219 C 96.425781 107.824219 96.300781 109 94.5 109 C 93.699219 109 93 109.46875 93 110 C 93 110.535156 93.949219 111 95.050781 111 C 96.371094 111 97.5625 112.101562 98.398438 114.101562 C 99.574219 116.898438 99.753906 116.996094 100.265625 115.101562 C 100.964844 112.5 103.371094 112.371094 105.800781 114.800781 C 107.9375 116.9375 110.953125 128.800781 110.734375 134.199219 C 110.503906 139.898438 112.050781 140.722656 115.808594 136.898438 C 119.980469 132.65625 121.570312 133.898438 120.53125 140.601562 C 120.03125 143.800781 118.90625 146.210938 117 148.148438 C 114.605469 150.585938 113.398438 151 108.699219 151 C 104.601562 151 103.046875 150.59375 102.597656 149.398438 C 101.625 146.832031 101.898438 146.335938 105 145.046875 C 106.699219 144.339844 108 143.648438 108 143.449219 C 108 143.257812 106.882812 141 105.5 138.398438 C 103.644531 134.914062 103 132.199219 103 127.898438 C 103 121.800781 102.339844 119 100.898438 119 C 100.398438 119 100.46875 120.199219 101.050781 121.699219 C 101.632812 123.199219 101.832031 125.46875 101.5 126.800781 C 100.898438 129.199219 100.898438 129.199219 98.851562 127.351562 C 97.738281 126.34375 95.976562 123.898438 95 122 C 94.023438 120.101562 92.171875 117.402344 90.949219 116.101562 C 88.839844 113.847656 88.199219 113.738281 80.601562 114.351562 C 76.101562 114.710938 71.078125 115.246094 69.300781 115.550781 C 66.898438 115.960938 65.871094 115.648438 65.183594 114.300781 C 63.222656 110.433594 64.601562 109.988281 78.800781 109.894531 C 89.800781 109.820312 91.808594 109.601562 89 108.800781 C 87.101562 108.257812 84.90625 107.617188 84.199219 107.398438 C 83.5 107.183594 83.179688 106.539062 83.507812 106 C 84.394531 104.542969 93.300781 104.699219 94.800781 106.199219 Z M 63.136719 111.5 C 62.953125 112.601562 62.167969 114.21875 61.398438 115.101562 C 60.613281 116 60 117.335938 60 118.148438 C 60 118.96875 59.367188 120.449219 58.550781 121.550781 C 57.757812 122.613281 57.078125 124.75 57.050781 126.25 C 57.023438 127.75 56.546875 129 56 129 C 55.453125 129 54.5 127.75 53.898438 126.25 C 53.300781 124.75 52.429688 122.773438 51.988281 121.898438 C 50.570312 119.101562 51.941406 116 54.601562 116 C 56.398438 116 57 115.425781 57 113.699219 C 57 112.398438 57.523438 110.878906 58.199219 110.199219 C 60.183594 108.214844 63.539062 109.101562 63.136719 111.5 Z M 91.734375 121 C 91.882812 121.847656 90.851562 123.324219 89.351562 124.398438 C 86.75 126.265625 86.675781 126.265625 85.332031 124.398438 C 83.519531 121.882812 83.699219 121.054688 86.300781 119.996094 C 89.300781 118.773438 91.40625 119.164062 91.734375 121 Z M 46.652344 124.699219 C 47.21875 127.050781 45.847656 136.601562 44.398438 140.398438 C 44.121094 141.121094 45.105469 143.148438 46.601562 144.949219 C 48.84375 147.648438 49.0625 148.351562 47.898438 149.089844 C 44.757812 151.085938 40.238281 148.898438 38.410156 144.5 C 36.496094 139.898438 36.527344 138.363281 38.5 140.019531 C 40.449219 141.65625 40.894531 141.101562 40.28125 137.800781 C 39.722656 134.800781 38.011719 134.066406 37.941406 136.800781 C 37.90625 138.320312 37.75 138.300781 36.476562 136.601562 C 34.894531 134.488281 34.59375 131.101562 35.652344 127.199219 L 36.300781 124.800781 L 37.601562 127.148438 C 38.320312 128.449219 38.917969 130.304688 38.9375 131.300781 C 39.019531 135.40625 42 132.101562 42 127.898438 C 42 125.398438 43.730469 122 45 122 C 45.554688 122 46.289062 123.199219 46.652344 124.699219 "/>
</g>
</svg>
